# xmcd
#
# Track frame offsets: 
#        150
#        20271
#        44934
#
# Disc length: 965 seconds
#
# Revision: 0
# Processed by: cddbd v1.5.2PL0 Copyright (c) Steve Scherf et al.
# Submitted via: ExactAudioCopy v1.0b3
#
DISCID=2203c303
DTITLE=Mike Andersen - You can't  have my love
DYEAR=2006
DGENRE=Blues
TTITLE0=You can't  have my love
TTITLE1=All over
TTITLE2=A little something
EXTD=
EXTT0=
EXTT1=
EXTT2=
PLAYORDER=
